Coordinates
version=1
nRows=17
nColumns=38
inDegrees=yes

Units are S.I. units (second, meters, Newtons, ...)
Angles are in degrees.

endheader
time	pelvis_tilt	pelvis_list	pelvis_rotation	pelvis_tx	pelvis_ty	pelvis_tz	hip_flexion_r	hip_adduction_r	hip_rotation_r	knee_angle_r	ankle_angle_r	subtalar_angle_r	mtp_angle_r	hip_flexion_l	hip_adduction_l	hip_rotation_l	knee_angle_l	ankle_angle_l	subtalar_angle_l	mtp_angle_l	lumbar_extension	lumbar_bending	lumbar_rotation	arm_flex_r	arm_add_r	arm_rot_r	elbow_flex_r	pro_sup_r	wrist_flex_r	wrist_dev_r	arm_flex_l	arm_add_l	arm_rot_l	elbow_flex_l	pro_sup_l	wrist_flex_l	wrist_dev_l
      2.09000000	      0.40795523	     -5.85435791	      2.97788973	     -0.56548780	      0.91223692	     -0.19323236	     18.53200467	      9.34256959	     -7.35323604	    -25.73424146	      1.30597407	     -4.09388045	      3.12323855	      3.79645712	     -6.34970161	      3.92242189	    -60.01099379	    -15.02099036	      1.27441970	     21.10545846	     -5.76144200	      9.94659148	     -9.25011488	     -7.66697656	    -17.46571417	      6.60622261	     20.39425532	     86.51662706	      0.00000000	      0.00000000	     -0.52140448	    -15.31194059	     13.21173547	     29.17165027	     86.51662706	      0.00000000	      0.00000000
      2.10000000	      0.51635167	     -5.81138547	      3.34432533	     -0.55364036	      0.91403378	     -0.19269195	     17.26373333	      9.33253513	     -7.72866247	    -25.18392010	      2.14696380	     -3.48454091	      2.69561676	      5.73634381	     -6.00833949	      4.51858320	    -61.82336581	    -13.46380070	      0.66836294	     20.54932341	     -5.99251370	      9.96288346	     -9.12813669	     -7.42763585	    -17.53073173	      6.54554528	     21.04945888	     86.51662706	      0.00000000	      0.00000000	     -0.28814975	    -15.20690212	     14.13307702	     28.16168995	     86.51662706	      0.00000000	      0.00000000
      2.11000000	      0.61814947	     -5.66772205	      3.67211401	     -0.54179164	      0.91588082	     -0.19211525	     15.96882377	      9.25030587	     -8.04288802	    -24.56839301	      2.88748040	     -2.94522571	      2.34919294	      7.62187790	     -5.51580303	      5.04944831	    -63.24882140	    -11.84524817	      0.22674678	     20.22575740	     -6.21448670	      9.85141792	     -8.95909497	     -7.18538926	    -17.58905304	      6.52243732	     21.69640538	     86.51662706	      0.00000000	      0.00000000	     -0.07660377	    -15.12348298	     15.02815783	     27.16547389	     86.51662706	      0.00000000	      0.00000000
      2.12000000	      0.70159572	     -5.43717898	      3.94370756	     -0.52991947	      0.91773624	     -0.19150267	     14.66252009	      9.11031619	     -8.26983311	    -23.90909871	      3.54390690	     -2.48508601	      2.08135325	      9.44491747	     -4.90889631	      5.48158036	    -64.28391769	    -10.25471595	     -0.09445892	     20.09178768	     -6.41550172	      9.62706734	     -8.73669610	     -6.93638865	    -17.64352779	      6.54401968	     22.32638021	     86.51662706	      0.00000000	      0.00000000	      0.08843897	    -15.05622905	     15.85838062	     26.20905392	     86.51662706	      0.00000000	      0.00000000
      2.13000000	      0.75768503	     -5.13830506	      4.14649910	     -0.51803944	      0.91954861	     -0.19083832	     13.35909273	      8.92909668	     -8.38616683	    -23.22290588	      4.13217009	     -2.10911096	      1.88219837	     11.20214940	     -4.23225289	      5.78669210	    -64.93523683	     -8.74706741	     -0.35275759	     20.08381249	     -6.58779227	      9.31101973	     -8.45838561	     -6.67568843	    -17.69898886	      6.61317783	     22.93544975	     86.51662706	      0.00000000	      0.00000000	      0.18932027	    -15.00007367	     16.59177501	     25.31386483	     86.51662706	      0.00000000	      0.00000000
      2.14000000	      0.78255623	     -4.79262826	      4.27194796	     -0.50617005	      0.92125994	     -0.19008416	     12.07134345	      8.72415322	     -8.37511741	    -22.52118409	      4.66596743	     -1.81762903	      1.73646384	     12.89303955	     -3.53080556	      5.94513967	    -65.21543610	     -7.34883600	     -0.60524619	     20.12766715	     -6.72795485	      8.92749656	     -8.12437349	     -6.39779911	    -17.76180043	      6.72855271	     23.52395810	     86.51662706	      0.00000000	      0.00000000	      0.21655982	    -14.95131759	     17.20560371	     24.49430287	     86.51662706	      0.00000000	      0.00000000
      2.15000000	      0.77733891	     -4.42168134	      4.31515507	     -0.49431409	      0.92282363	     -0.18921780	     10.80898396	      8.51267953	     -8.22989221	    -21.81054312	      5.15681936	     -1.60542546	      1.62597366	     14.51673902	     -2.84376931	      5.94946534	    -65.14060341	     -6.06709962	     -0.89670772	     20.14885390	     -6.83676751	      8.50125068	     -7.73666976	     -6.09763610	    -17.83897204	      6.88491745	     24.09563340	     86.51662706	      0.00000000	      0.00000000	      0.16865322	    -14.90789990	     17.68764790	     23.75647662	     86.51662706	      0.00000000	      0.00000000
      2.16000000	      0.74661381	     -4.04474464	      4.27526470	     -0.48246269	      0.92421458	     -0.18825136	      9.57648046	      8.30989412	     -7.95600663	    -21.09415272	      5.61512049	     -1.46074056	      1.53222728	     16.06962254	     -2.20088375	      5.80628913	    -64.72819304	     -4.89837579	     -1.25241574	     20.08167791	     -6.91875423	      8.05590706	     -7.29853393	     -5.77161761	    -17.93708331	      7.07386545	     24.65650200	     86.51662706	      0.00000000	      0.00000000	      0.05098080	    -14.86889950	     18.03611044	     23.09833151	     86.51662706	      0.00000000	      0.00000000
      2.17000000	      0.69714792	     -3.67808268	      4.15644908	     -0.47061057	      0.92541501	     -0.18720984	      8.37141458	      8.12717970	     -7.57200556	    -20.37266089	      6.05123901	     -1.36460877	      1.43874615	     17.54479269	     -1.62109296	      5.53552809	    -63.99500344	     -3.83593486	     -1.67681225	     19.87622701	     -6.98159219	      7.61272324	     -6.81437195	     -5.41857546	    -18.06129225	      7.28472122	     25.21377042	     86.51662706	      0.00000000	      0.00000000	     -0.12585285	    -14.83363243	     18.25833516	     22.51103300	     86.51662706	      0.00000000	      0.00000000
      2.18000000	      0.63738777	     -3.33445518	      3.96837680	     -0.45876546	      0.92640164	     -0.18611254	      7.18445766	      7.97082706	     -7.10832158	    -19.64449851	      6.47589569	     -1.29107077	      1.33288433	     18.93323238	     -1.11368480	      5.16730800	    -62.95590769	     -2.87488588	     -2.15748024	     19.50247459	     -7.03525523	      7.18951093	     -6.28988011	     -5.04018493	    -18.21462445	      7.50557598	     25.77478414	     86.51662706	      0.00000000	      0.00000000	     -0.34800720	    -14.80085633	     18.36869952	     21.98122613	     86.51662706	      0.00000000	      0.00000000
      2.19000000	      0.57707454	     -3.02259155	      3.72512701	     -0.44694046	      0.92715341	     -0.18497730	      6.00123678	      7.84192381	     -6.60434502	    -18.90613912	      6.89952479	     -1.20869655	      1.20692794	     20.22534877	     -0.68073270	      4.73752952	    -61.62406399	     -2.01494850	     -2.67250657	     18.95123746	     -7.09081732	      6.79978205	     -5.73219156	     -4.64078201	    -18.39766742	      7.72434838	     26.34612802	     86.51662706	      0.00000000	      0.00000000	     -0.60053496	    -14.76848432	     18.38609991	     21.49364559	     86.51662706	      0.00000000	      0.00000000
      2.20000000	      0.52629495	     -2.74732683	      3.44286158	     -0.43513638	      0.92766461	     -0.18382242	      4.80548755	      7.73748532	     -6.10400088	    -18.15300219	      7.33087230	     -1.08358970	      1.05844792	     21.41201624	     -0.31913105	      4.28289762	    -60.01217232	     -1.26100778	     -3.19876564	     18.23227571	     -7.15907297	      6.45233066	     -5.14987044	     -4.22663683	    -18.60870148	      7.92977577	     26.93290464	     86.51662706	      0.00000000	      0.00000000	     -0.86946693	    -14.73393493	     18.33143101	     21.03354616	     86.51662706	      0.00000000	      0.00000000
      2.21000000	      0.49401641	     -2.51042184	      3.13753055	     -0.42333697	      0.92794377	     -0.18265839	      3.58250615	      7.65248879	     -5.65030590	    -17.38122136	      7.77544711	     -0.88363354	      0.88999559	     22.48500947	     -0.02171135	      3.83620731	    -58.13380570	     -0.62163652	     -3.71881368	     17.37035279	     -7.24919270	      6.15142665	     -4.55271083	     -3.80489063	    -18.84414479	      8.11224769	     27.53821603	     86.51662706	      0.00000000	      0.00000000	     -1.14357557	    -14.69485020	     18.22536834	     20.58853744	     86.51662706	      0.00000000	      0.00000000
      2.22000000	      0.48680450	     -2.31137342	      2.82343316	     -0.41152400	      0.92799480	     -0.18148911	      2.32204768	      7.58194931	     -5.27970204	    -16.58985322	      8.23453929	     -0.58332311	      0.70830863	     23.43725197	      0.22174727	      3.42290869	    -56.00411431	     -0.10592356	     -4.22474458	     16.40034000	     -7.36759132	      5.89763721	     -3.95136474	     -3.38240104	    -19.09913999	      8.26440829	     28.16286929	     86.51662706	      0.00000000	      0.00000000	     -1.41545334	    -14.64970071	     18.08664593	     20.14959206	     86.51662706	      0.00000000	      0.00000000
      2.23000000	      0.50837955	     -2.14805989	      2.51252964	     -0.39968823	      0.92780568	     -0.18033070	      1.02030740	      7.52228547	     -5.01733112	    -15.78266070	      8.70529513	     -0.16825163	      0.52321542	     24.26336730	      0.42302380	      3.05974244	    -53.63962597	      0.28074965	     -4.71824922	     15.36235235	     -7.51718735	      5.68902449	     -3.35683783	     -2.96474394	    -19.36815418	      8.38147690	     28.80531156	     86.51662706	      0.00000000	      0.00000000	     -1.68169084	    -14.59791285	     17.93093169	     19.71120450	     86.51662706	      0.00000000	      0.00000000
      2.24000000	      0.55943003	     -2.01767494	      2.21420217	     -0.38782489	      0.92736898	     -0.17921874	     -0.31942618	      7.47183811	     -4.87438207	    -14.96888482	      9.18181207	      0.36175489	      0.34639520	     24.96044320	      0.59366399	      2.75549030	    -51.05755353	      0.54091459	     -5.20703485	     14.29756994	     -7.69721432	      5.52232574	     -2.77979649	     -2.55560394	    -19.64554060	      8.46126586	     29.46178515	     86.51662706	      0.00000000	      0.00000000	     -1.94226513	    -14.53949962	     17.77033989	     19.27085858	     86.51662706	      0.00000000	      0.00000000
      2.25000000	      0.63741535	     -1.91770443	      1.93527659	     -0.37591651	      0.92669840	     -0.17818231	     -1.68753237	      7.43089970	     -4.84785112	    -14.16290038	      9.65672970	      0.99167385	      0.19008468	     25.52888827	      0.74326216	      2.51323511	    -48.27541645	      0.68787895	     -5.69857499	     13.24501799	     -7.90363878	      5.39384329	     -2.22958777	     -2.15669713	    -19.92608029	      8.50391479	     30.12669137	     86.51662706	      0.00000000	      0.00000000	     -2.19944504	    -14.47450302	     17.61354158	     18.82807737	     86.51662706	      0.00000000	      0.00000000
